<?xml version="1.0" encoding="UTF-8" standalone="no"?>
<svg
   xmlns:dc="http://purl.org/dc/elements/1.1/"
   xmlns:cc="http://creativecommons.org/ns#"
   xmlns:rdf="http://www.w3.org/1999/02/22-rdf-syntax-ns#"
   xmlns:svg="http://www.w3.org/2000/svg"
   xmlns="http://www.w3.org/2000/svg"
   xmlns:sodipodi="http://sodipodi.sourceforge.net/DTD/sodipodi-0.dtd"
   xmlns:inkscape="http://www.inkscape.org/namespaces/inkscape"
   t="1612854902110"
   class="icon"
   viewBox="0 0 1024 1433.6"
   version="1.1"
   p-id="2247"
   width="200"
   height="280"
   id="svg241"
   sodipodi:docname="banner_vertical.svg"
   inkscape:version="1.0.2 (e86c8708, 2021-01-15)">
  <metadata
     id="metadata245">
    <rdf:RDF>
      <cc:Work
         rdf:about="">
        <dc:format>image/svg+xml</dc:format>
        <dc:type
           rdf:resource="http://purl.org/dc/dcmitype/StillImage" />
        <dc:title></dc:title>
      </cc:Work>
    </rdf:RDF>
  </metadata>
  <sodipodi:namedview
     pagecolor="#ffffff"
     bordercolor="#666666"
     borderopacity="1"
     objecttolerance="10"
     gridtolerance="10"
     guidetolerance="10"
     inkscape:pageopacity="0"
     inkscape:pageshadow="2"
     inkscape:window-width="2048"
     inkscape:window-height="1038"
     id="namedview243"
     showgrid="false"
     inkscape:zoom="1.9104795"
     inkscape:cx="11.865568"
     inkscape:cy="178.98215"
     inkscape:window-x="0"
     inkscape:window-y="25"
     inkscape:window-maximized="1"
     inkscape:current-layer="svg241"
     inkscape:document-rotation="0" />
  <defs
     id="defs205">
    <style
       type="text/css"
       id="style203" />
    <style
       type="text/css"
       id="style961" />
  </defs>
  <g
     id="g1023"
     transform="matrix(1,0,0,1.0495975,-2.3030359e-6,-25.393881)">
    <path
       d="m 353.38931,284.60344 109.76979,-3.79999 c -0.05,-0.482 -2.146,-12.43397 -2.196,-12.91997 C 456.29711,223.48356 442.61114,153.3377 402.64921,101.7738 362.62929,50.133902 290.33543,31.141939 236.81954,24.291953 c -11.52198,-1.473997 -16.62797,14.075973 -6.44399,19.663961 53.1379,29.153943 121.94576,92.407816 123.00376,224.595566 0.004,0.85999 0.008,15.18397 0.01,16.05196 z"
       fill="#deccbc"
       p-id="2248"
       id="path965" />
    <path
       d="m 234.60554,24.225953 a 10.43398,10.43398 0 0 0 -1.65199,0.237999 c -0.114,0.026 -0.224,0.058 -0.334,0.086 -0.518,0.136 -1.02,0.299999 -1.494,0.509999 -0.064,0.028 -0.124,0.064 -0.186,0.092 -0.414,0.194 -0.802,0.419999 -1.178,0.663999 -0.13,0.084 -0.262,0.166 -0.388,0.255999 a 10.09398,10.09398 0 0 0 -1.99199,1.907996 10.687979,10.687979 0 0 0 -0.954,1.389998 11.277978,11.277978 0 0 0 -1.466,4.74799 c 42.34192,11.149978 86.49183,31.307939 114.65978,67.653867 38.98392,50.3019 52.95989,118.27977 57.95188,162.79768 l 0.972,18.46997 64.61187,-2.236 c -0.05,-0.482 -2.14599,-12.43397 -2.19599,-12.91997 C 456.29511,223.48356 442.60914,153.3377 402.64721,101.7738 385.13925,79.181845 361.45129,62.837877 335.86334,51.0259 A 254.4575,254.4575 0 0 0 324.79337,46.23591 283.55545,283.55545 0 0 0 307.9154,40.025922 317.91538,317.91538 0 0 0 296.58942,36.491929 C 283.37945,32.637937 270.22547,29.701942 257.6675,27.467946 a 433.79515,433.79515 0 0 0 -20.84796,-3.177993 11.583977,11.583977 0 0 0 -1.882,-0.076 c -0.112,0.004 -0.222,0.004 -0.332,0.012 z"
       fill="#cebaab"
       p-id="2249"
       id="path967" />
    <path
       d="m 670.60869,284.60344 -109.76978,-3.79999 c 0.05,-0.482 2.14599,-12.43397 2.19599,-12.91997 4.66599,-44.39992 18.35196,-114.54578 58.31389,-166.10968 40.01992,-51.639898 112.31378,-70.631861 165.82967,-77.481847 11.52198,-1.473997 16.62797,14.075973 6.44399,19.663961 -53.1379,29.153943 -121.94576,92.407816 -123.00376,224.595566 -0.004,0.85999 -0.008,15.18397 -0.01,16.05196 z"
       fill="#deccbc"
       p-id="2250"
       id="path969" />
    <path
       d="m 793.62445,43.953914 c 5.32199,-2.919994 6.43999,-8.549983 4.67599,-13.059974 -7.23199,1.613997 -14.55997,3.449993 -21.91996,5.597989 a 317.91538,317.91538 0 0 0 -11.32597,3.533993 282.52945,282.52945 0 0 0 -16.87797,6.209988 c -3.71999,1.507997 -7.41599,3.101994 -11.06998,4.78999 -25.58795,11.811977 -49.2739,28.153945 -66.78387,50.7479 -39.96192,51.5639 -53.64789,121.70976 -58.31388,166.10968 -0.016,0.16 -0.492,6.37999 -1.122,14.65397 l 59.72388,2.06799 c 0.002,-0.86799 0.006,-15.19197 0.012,-16.05396 1.056,-132.18775 69.86386,-195.443623 123.00176,-224.597566 z"
       fill="#cebaab"
       p-id="2251"
       id="path971" />
    <path
       d="m 300.56941,456.49711 c 48.17191,5.61799 80.99185,-47.61791 54.2619,-88.08583 A 1519.917,1519.917 0 0 0 327.51336,328.45336 C 318.11338,316.08738 311.00739,307.3814 311.00739,307.3814 235.25354,217.44758 24.039953,211.50359 24.039953,211.50359 6.115988,211.29159 -4.041992,222.67956 1.525997,236.79954 l 26.285949,66.65987 c 25.61595,64.96187 95.233814,117.29177 172.703664,134.45973 0,0 56.92989,13.76598 97.20381,18.24397 z"
       fill="#bf7f4f"
       p-id="2252"
       id="path973" />
    <path
       d="m 331.71535,411.8152 c 4.80199,-10.26798 0.602,-22.47796 -9.49398,-27.62995 -16.11597,-8.22598 -35.90793,-18.91596 -37.40593,-21.32196 -28.16994,-45.26791 -58.41788,-91.30782 -120.91776,-95.57181 -21.61196,-1.476 -87.753829,-2.426 -110.559784,-2.72 -3.873992,-0.05 -6.053988,3 -4.411992,6.19999 10.983979,21.40196 48.775905,89.49183 96.305816,112.84178 50.3459,24.73395 121.92376,36.44193 165.60367,40.23792 a 21.029959,21.029959 0 0 0 20.87996,-12.03597 z"
       fill="#a86b38"
       p-id="2253"
       id="path975" />
    <path
       d="m 723.42859,456.49711 c -48.17191,5.61799 -80.99185,-47.61791 -54.2619,-88.08583 a 1519.917,1519.917 0 0 1 27.31795,-39.95792 c 9.39998,-12.36598 16.50597,-21.07196 16.50597,-21.07196 75.75385,-89.93382 286.96944,-95.87581 286.96944,-95.87581 17.92195,-0.212 28.08195,11.17598 22.51395,25.29595 l -26.28595,66.65987 c -25.61595,64.96187 -95.23381,117.29177 -172.70366,134.45974 0,0 -56.92989,13.76597 -97.20381,18.24396 z"
       fill="#bf7f4f"
       p-id="2254"
       id="path977" />
    <path
       d="m 692.28265,411.8152 c -4.80199,-10.26798 -0.602,-22.47796 9.49398,-27.62995 16.11597,-8.22598 35.90793,-18.91596 37.40593,-21.32196 28.16994,-45.26791 58.41788,-91.30782 120.91776,-95.57181 21.61196,-1.476 87.75383,-2.426 110.55978,-2.72 3.874,-0.05 6.05399,3 4.412,6.19999 -10.98398,21.40196 -48.77591,89.49183 -96.30582,112.84178 -50.3459,24.73395 -121.92376,36.44193 -165.60367,40.23792 A 21.029959,21.029959 0 0 1 692.28265,411.8152 Z"
       fill="#a86b38"
       p-id="2255"
       id="path979" />
    <path
       d="m 511.999,877.99828 c -61.52188,0 -136.51973,-84.77383 -88.46183,77.37185 9.02999,30.46994 46.87991,44.43592 88.46183,44.43592 41.58192,0 79.43184,-13.96398 88.46183,-44.43592 48.0579,-162.14568 -26.93995,-77.37185 -88.46183,-77.37185 z"
       fill="#844d28"
       p-id="2256"
       id="path981" />
    <path
       d="m 644.48874,264.56948 h -62.96188 a 42.885916,42.885916 0 0 0 -35.38393,18.65397 l -15.83997,23.12595 c -8.78598,12.82598 -27.70994,12.83198 -36.50392,0.01 l -15.87997,-23.15595 a 42.891916,42.891916 0 0 0 -35.37193,-18.63397 h -63.03988 c -17.99397,0 -34.67993,9.46398 -43.84792,24.94795 -31.07393,52.4799 -50.3379,108.65179 -50.3379,121.15777 0,0 -0.674,122.49176 -0.674,124.82375 0,129.50975 89.80983,253.56551 118.83577,362.0553 11.71998,43.80591 64.00388,56.29989 108.51179,56.98989 44.50791,-0.69 96.79181,-13.18198 108.51179,-56.98989 29.02594,-108.48979 118.83577,-232.54355 118.83577,-362.0553 0,-2.33199 -0.674,-124.82375 -0.674,-124.82375 0,-12.50598 -19.26396,-68.67787 -50.3379,-121.15777 -9.16199,-15.48397 -25.84795,-24.94795 -43.84192,-24.94795 z"
       fill="#a86b38"
       p-id="2257"
       id="path983" />
    <path
       d="m 738.67256,410.6732 c 0,-12.50598 -19.26397,-68.67787 -50.3379,-121.15776 -9.16799,-15.48197 -25.85395,-24.94796 -43.84792,-24.94796 h -62.96188 c -0.084,0 -0.168,0.008 -0.25199,0.008 17.90196,0.082 34.48393,9.52398 43.61191,24.93996 31.07394,52.47989 50.3379,108.65178 50.3379,121.15776 0,0 0.674,122.49176 0.674,124.82375 0,129.50975 -89.80983,253.56551 -118.83577,362.0553 -8.99198,33.61193 -41.86792,48.7779 -76.78585,54.33189 10.59198,1.684 21.36796,2.496 31.72594,2.658 44.50791,-0.69 96.79181,-13.18198 108.51179,-56.98989 29.02594,-108.48979 118.83577,-232.54355 118.83577,-362.0553 -0.002,-2.33199 -0.676,-124.82375 -0.676,-124.82375 z"
       fill="#9b5e31"
       p-id="2258"
       id="path985" />
    <path
       d="m 539.37295,902.23424 a 47.725907,47.725907 0 0 1 -54.7479,0 c -23.93795,-16.75397 -54.90589,-42.35192 -54.90589,-62.66188 0,-56.86989 77.20785,-56.86989 77.20785,-56.86989 h 10.14398 c 0,0 77.20785,0 77.20785,56.86989 0,20.30996 -30.96794,45.90791 -54.90589,62.66188 z"
       fill="#3d3d42"
       p-id="2259"
       id="path987" />
    <path
       d="m 517.07099,782.70447 h -10.14398 c 0,0 -10.30598,0.004 -23.38595,2.776 22.72395,4.81599 53.82189,17.99796 53.82189,54.09389 0,15.89197 -12.40398,49.3099 -29.26994,71.12186 a 47.687907,47.687907 0 0 0 31.27794,-8.45998 c 23.93795,-16.75397 54.90589,-42.35192 54.90589,-62.66188 0.002,-56.86989 -77.20585,-56.86989 -77.20585,-56.86989 z"
       fill="#333338"
       p-id="2260"
       id="path989" />
    <path
       d="M 389.54524,609.55481 C 375.25127,512.321 314.46739,475.34507 285.03744,462.9491 c -0.184,33.61593 -0.388,71.26586 -0.388,72.54785 0,120.86577 78.21385,236.97754 112.24779,340.12134 v -0.01 c -8.17399,-76.64585 11.68997,-136.51173 -7.35199,-266.05348 z m 244.90752,0 c 14.29397,-97.23381 75.07785,-134.20974 104.5078,-146.60571 0.184,33.61593 0.388,71.26586 0.388,72.54785 0,120.86577 -78.21385,236.97754 -112.24779,340.12134 v -0.01 c 8.17399,-76.64585 -11.68997,-136.51173 7.35199,-266.05348 z"
       fill="#bf7f4f"
       p-id="2261"
       id="path991" />
    <path
       d="m 739.34256,534.41296 v -0.018 l -0.016,-3.19 -0.012,-2.36799 -0.004,-0.64 -0.002,-0.406 -0.028,-5.31599 -0.038,-7.03599 -0.036,-6.71798 -0.038,-6.88999 -0.056,-10.37998 -0.014,-2.47999 -0.018,-3.278 -0.014,-2.44199 -0.052,-9.58598 -0.058,-10.71798 c -15.97797,6.72998 -41.18792,20.73396 -63.19188,47.6639 0.076,14.16198 0.128,24.23196 0.128,24.88595 0,65.95588 -23.29596,130.49575 -49.9899,192.28563 0.282,57.24989 6.38399,99.16781 1.19399,147.82371 v 0.01 c 13.27198,-40.21992 33.25394,-82.41384 52.7059,-126.09175 0.418,-0.938 0.836,-1.874 1.252,-2.814 a 2435.8892,2435.8892 0 0 0 5.06599,-11.49198 c 0.512,-1.16999 1.022,-2.34399 1.532,-3.51599 a 1559.817,1559.817 0 0 0 4.51799,-10.48798 c 1.18,-2.76999 2.35599,-5.54199 3.51999,-8.32198 l 0.872,-2.098 a 1068.0659,1068.0659 0 0 0 3.39999,-8.26198 l 0.794,-1.962 c 1.16,-2.86999 2.304,-5.74599 3.436,-8.62598 l 0.67599,-1.714 c 1.18,-3.02599 2.34,-6.05799 3.484,-9.09398 l 0.726,-1.926 a 721.98459,721.98459 0 0 0 3.31199,-9.04998 l 0.706,-1.97199 a 662.37271,662.37271 0 0 0 3.80999,-11.03398 c 1.032,-3.08 2.042,-6.16599 3.01999,-9.25598 l 0.54,-1.722 c 0.994,-3.17 1.962,-6.34599 2.894,-9.52598 0.134,-0.456 0.262,-0.914 0.394,-1.372 0.95999,-3.31199 1.89199,-6.62599 2.77999,-9.94998 l 0.19,-0.728 c 0.89,-3.35199 1.74,-6.70799 2.55,-10.06998 l 0.16,-0.652 c 0.80399,-3.36599 1.55999,-6.73799 2.27799,-10.11598 0.088,-0.416 0.182,-0.83 0.268,-1.246 0.684,-3.26799 1.322,-6.54198 1.92,-9.81998 0.094,-0.514 0.19,-1.026 0.282,-1.53999 a 357.0333,357.0333 0 0 0 3.10399,-21.07596 c 0.062,-0.53 0.118,-1.06 0.178,-1.59 0.364,-3.28599 0.682,-6.57399 0.942,-9.86798 0.036,-0.454 0.066,-0.908 0.098,-1.362 0.252,-3.38799 0.458,-6.77798 0.596,-10.17398 0.012,-0.292 0.018,-0.586 0.028,-0.88 0.134,-3.56599 0.214,-7.13598 0.214,-10.70998 l -0.002,-0.40999 c 0.004,-0.178 0.004,-0.39 0.002,-0.674 z"
       fill="#af7045"
       p-id="2262"
       id="path993" />
    <path
       d="m 478.93707,864.83231 a 13.745973,13.745973 0 0 0 10.25797,4.56999 13.789973,13.789973 0 0 0 10.24998,-23.00995 l -15.88596,-17.66797 a 13.789973,13.789973 0 0 0 -20.50796,18.43997 z m 46.6499,1.036 a 13.735973,13.735973 0 0 0 9.21598,3.53599 13.751973,13.751973 0 0 0 10.25798,-4.56999 l 15.88397,-17.66797 a 13.789973,13.789973 0 0 0 -20.50796,-18.43996 l -15.88397,17.66797 a 13.789973,13.789973 0 0 0 1.034,19.47396 z"
       fill="#1a1a1a"
       p-id="2263"
       id="path995" />
    <path
       d="m 361.77929,615.8368 a 15.27197,15.27197 0 0 1 -14.08797,-9.36798 c -9.73198,-23.20396 -23.84195,-28.27595 -23.97795,-28.31195 a 15.270299,15.270299 0 1 1 7.91198,-29.49794 c 2.876,0.772 28.55195,8.61998 44.22792,45.99991 a 15.26797,15.26797 0 0 1 -14.07398,21.17796 z m 300.43942,0 a 15.27197,15.27197 0 0 0 14.08797,-9.36798 c 9.73198,-23.20396 23.84195,-28.27595 23.97795,-28.31195 a 15.270299,15.270299 0 1 0 -7.91198,-29.49794 c -2.876,0.772 -28.55195,8.61998 -44.22792,45.99991 a 15.26797,15.26797 0 0 0 14.07398,21.17796 z"
       fill="#4c3f21"
       p-id="2264"
       id="path997" />
  </g>
  <g
     id="svgGroup"
     stroke-linecap="round"
     fill-rule="evenodd"
     font-size="12px"
     stroke="#000"
     stroke-width="0.25mm"
     fill="none"
     style="fill:#3d3d42;stroke:#000000;stroke-width:0.9426451;fill-opacity:1;stroke-miterlimit:4;stroke-dasharray:none"
     transform="matrix(2.7303034,0,0,2.7303034,1.2912083,1127.6899)">
    <path
       d="M 0.002,60.1 V 40.5 a 24.185,24.185 0 0 1 0.833,-6.648 q 2.136,-7.455 9.746,-9.436 A 24.751,24.751 0 0 1 16.802,23.7 h 13.1 V 2.9 h 16.7 v 74 h -29.8 A 24.185,24.185 0 0 1 10.154,76.067 Q 2.699,73.932 0.719,66.322 A 24.751,24.751 0 0 1 0.002,60.1 Z m 16.7,-20.6 v 21.6 q 0,1.032 0.819,1.245 a 1.915,1.915 0 0 0 0.481,0.055 h 11.9 V 38.2 h -11.9 q -1.031,0 -1.244,0.819 A 1.915,1.915 0 0 0 16.702,39.5 Z"
       id="0"
       vector-effect="non-scaling-stroke"
       style="fill:#666666;fill-opacity:1;stroke-width:0.9426451;stroke-miterlimit:4;stroke-dasharray:none" />
    <path
       d="M 59.402,60.1 V 40.5 a 24.185,24.185 0 0 1 0.833,-6.648 q 2.136,-7.455 9.746,-9.436 A 24.751,24.751 0 0 1 76.202,23.7 h 14 a 24.185,24.185 0 0 1 6.649,0.833 q 7.455,2.135 9.435,9.745 a 24.751,24.751 0 0 1 0.716,6.222 v 19.6 a 24.185,24.185 0 0 1 -0.832,6.648 q -2.136,7.455 -9.746,9.436 A 24.751,24.751 0 0 1 90.202,76.9 h -14 A 24.185,24.185 0 0 1 69.554,76.067 Q 62.099,73.932 60.119,66.322 A 24.751,24.751 0 0 1 59.402,60.1 Z m 16.7,-20.6 v 21.6 q 0,1.032 0.819,1.245 a 1.915,1.915 0 0 0 0.481,0.055 h 11.6 q 1.032,0 1.245,-0.819 A 1.915,1.915 0 0 0 90.302,61.1 V 39.5 q 0,-1.032 -0.818,-1.245 A 1.915,1.915 0 0 0 89.002,38.2 h -11.6 q -1.031,0 -1.244,0.819 A 1.915,1.915 0 0 0 76.102,39.5 Z"
       id="1"
       vector-effect="non-scaling-stroke"
       style="fill:#666666;fill-opacity:1;stroke-width:0.9426451;stroke-miterlimit:4;stroke-dasharray:none" />
    <path
       d="M 119.402,55.2 V 2.9 h 16.7 v 54 a 8.329,8.329 0 0 0 0.382,2.625 q 1.143,3.45 5.718,3.975 V 78 A 32.823,32.823 0 0 1 133.18,76.87 Q 123.062,73.972 120.375,63.644 A 33.591,33.591 0 0 1 119.402,55.2 Z"
       id="2"
       vector-effect="non-scaling-stroke"
       style="fill:#666666;fill-opacity:1;stroke-width:0.9426451;stroke-miterlimit:4;stroke-dasharray:none" />
    <path
       d="M 152.902,55.2 V 2.9 h 16.7 v 54 a 8.329,8.329 0 0 0 0.382,2.625 q 1.143,3.45 5.718,3.975 V 78 A 32.823,32.823 0 0 1 166.68,76.87 Q 156.562,73.972 153.875,63.644 A 33.591,33.591 0 0 1 152.902,55.2 Z"
       id="3"
       vector-effect="non-scaling-stroke"
       style="fill:#666666;fill-opacity:1;stroke-width:0.9426451;stroke-miterlimit:4;stroke-dasharray:none" />
    <path
       d="m 203.502,76.9 h -16.7 V 23.7 h 16.7 z m 0.2,-61.4 h -17.1 V 0 h 17.1 z"
       id="4"
       vector-effect="non-scaling-stroke"
       style="fill:#666666;fill-opacity:1;stroke-width:0.9426451;stroke-miterlimit:4;stroke-dasharray:none" />
    <path
       d="M 216.302,60.1 V 40.5 a 24.185,24.185 0 0 1 0.833,-6.648 q 2.136,-7.455 9.746,-9.436 a 24.751,24.751 0 0 1 6.221,-0.716 h 13 a 24.185,24.185 0 0 1 6.649,0.833 q 7.455,2.135 9.435,9.745 a 24.751,24.751 0 0 1 0.716,6.222 v 15.9 h -29.9 v 4.7 q 0,1.032 0.819,1.245 a 1.915,1.915 0 0 0 0.481,0.055 h 26.6 v 9.3 l -7,5.2 h -20.8 a 24.185,24.185 0 0 1 -6.648,-0.833 q -7.455,-2.135 -9.435,-9.745 A 24.751,24.751 0 0 1 216.302,60.1 Z m 16.7,-20.6 v 4.3 h 13.2 v -4.3 q 0,-1.032 -0.818,-1.245 A 1.915,1.915 0 0 0 244.902,38.2 h -10.6 q -1.031,0 -1.244,0.819 a 1.915,1.915 0 0 0 -0.056,0.481 z"
       id="5"
       vector-effect="non-scaling-stroke"
       style="fill:#666666;fill-opacity:1;stroke-width:0.9426451;stroke-miterlimit:4;stroke-dasharray:none" />
    <path
       d="m 292.002,76.9 h -17.5 V 60.8 h 17.5 z"
       id="6"
       vector-effect="non-scaling-stroke"
       style="fill:#844d28;fill-opacity:1;stroke-width:0.9426451;stroke-miterlimit:4;stroke-dasharray:none" />
    <path
       d="M 296.502,98 V 83.9 a 11.754,11.754 0 0 0 3.27,-0.677 q 3.617,-1.368 4.409,-5.312 A 12.266,12.266 0 0 0 304.402,75.5 V 23.7 h 16.7 v 49.7 q 0,19.521 -15.489,23.551 A 36.243,36.243 0 0 1 296.502,98 Z m 24.8,-82.5 h -17.1 V 0 h 17.1 z"
       id="7"
       vector-effect="non-scaling-stroke"
       style="fill:#844d28;fill-opacity:1;stroke-width:0.9426451;stroke-miterlimit:4;stroke-dasharray:none" />
    <path
       d="m 340.002,76.9 -7,-5.2 v -9.3 h 23 q 1.366,0 1.566,-1.603 a 4.838,4.838 0 0 0 0.034,-0.597 5.3,5.3 0 0 0 -0.069,-0.896 q -0.079,-0.457 -0.247,-0.795 A 1.615,1.615 0 0 0 356.102,57.6 l -10.2,-1.7 a 19.545,19.545 0 0 1 -5.775,-1.849 q -5.733,-2.99 -6.853,-9.878 a 22.281,22.281 0 0 1 -0.272,-3.573 24.465,24.465 0 0 1 0.833,-6.688 Q 336.743,23.7 349.802,23.7 h 14.9 l 7,5.2 v 9.3 h -20.6 q -1.365,0 -1.565,1.603 a 4.838,4.838 0 0 0 -0.035,0.597 q 0,1.931 0.71,2.665 a 1.45,1.45 0 0 0 0.89,0.435 l 10.2,1.7 q 11.15,1.829 12.588,11.702 A 21.514,21.514 0 0 1 374.102,60 24.465,24.465 0 0 1 373.27,66.688 Q 370.362,76.9 357.302,76.9 Z"
       id="8"
       vector-effect="non-scaling-stroke"
       style="fill:#844d28;fill-opacity:1;stroke-width:0.9426451;stroke-miterlimit:4;stroke-dasharray:none" />
  </g>
</svg>
