<?xml version="1.0" standalone="no"?><!DOCTYPE svg PUBLIC "-//W3C//DTD SVG 1.1//EN" "http://www.w3.org/Graphics/SVG/1.1/DTD/svg11.dtd"><svg t="1612854902110" class="icon" viewBox="0 0 1024 1024" version="1.1" xmlns="http://www.w3.org/2000/svg" p-id="2247" xmlns:xlink="http://www.w3.org/1999/xlink" width="200" height="200"><defs><style type="text/css"></style></defs><path d="M353.38931 284.603444l109.769785-3.799992c-0.05-0.481999-2.145996-12.433976-2.195995-12.919975-4.665991-44.399913-18.351964-114.545776-58.313886-166.109676-40.019922-51.639899-112.313781-70.631862-165.829677-77.481848-11.521977-1.473997-16.627968 14.075973-6.443987 19.663961 53.137896 29.153943 121.945762 92.40782 123.00376 224.595561 0.004 0.859998 0.008 15.18397 0.01 16.051969z" fill="#DECCBC" p-id="2248"></path><path d="M234.605542 24.225953a10.43398 10.43398 0 0 0-1.651997 0.237999c-0.114 0.026-0.224 0.058-0.333999 0.086-0.517999 0.136-1.019998 0.299999-1.493997 0.509999-0.064 0.028-0.124 0.064-0.186 0.092-0.413999 0.194-0.801998 0.419999-1.177998 0.663999-0.13 0.084-0.261999 0.166-0.387999 0.255999a10.09398 10.09398 0 0 0-1.991996 1.907996 10.687979 10.687979 0 0 0-0.953998 1.389998 11.277978 11.277978 0 0 0-1.465997 4.74799c42.341917 11.149978 86.491831 31.307939 114.659776 67.653868 38.983924 50.301902 52.959897 118.279769 57.951886 162.797682l0.971999 18.469964 64.611873-2.235995c-0.05-0.481999-2.145996-12.433976-2.195995-12.919975-4.665991-44.399913-18.351964-114.545776-58.313886-166.109676-17.507966-22.591956-41.19592-38.935924-66.78387-50.747901a254.457503 254.457503 0 0 0-11.069978-4.78999 283.555446 283.555446 0 0 0-16.877967-6.209988 317.915379 317.915379 0 0 0-11.325978-3.533993c-13.209974-3.853992-26.363949-6.789987-38.921924-9.023983a433.795153 433.795153 0 0 0-20.84796-3.177993 11.583977 11.583977 0 0 0-1.881996-0.076c-0.112 0.004-0.222 0.004-0.331999 0.012z" fill="#CEBAAB" p-id="2249"></path><path d="M670.60869 284.603444l-109.769785-3.799992c0.05-0.481999 2.145996-12.433976 2.195995-12.919975 4.665991-44.399913 18.351964-114.545776 58.313886-166.109676 40.019922-51.639899 112.313781-70.631862 165.829677-77.481848 11.521977-1.473997 16.627968 14.075973 6.443987 19.663961-53.137896 29.153943-121.945762 92.40782-123.00376 224.595561-0.004 0.859998-0.008 15.18397-0.01 16.051969z" fill="#DECCBC" p-id="2250"></path><path d="M793.62445 43.953914c5.32199-2.919994 6.439987-8.549983 4.675991-13.059974-7.231986 1.613997-14.559972 3.449993-21.919957 5.597989a317.915379 317.915379 0 0 0-11.325978 3.533993 282.529448 282.529448 0 0 0-16.877967 6.209988c-3.719993 1.507997-7.415986 3.101994-11.069979 4.78999-25.58795 11.811977-49.273904 28.153945-66.783869 50.747901-39.961922 51.563899-53.647895 121.709762-58.313886 166.109676-0.016 0.16-0.491999 6.379988-1.121998 14.653971l59.723883 2.067996c0.002-0.867998 0.006-15.19197 0.012-16.053969 1.055998-132.187742 69.863864-195.443618 123.00176-224.597561z" fill="#CEBAAB" p-id="2251"></path><path d="M300.569413 456.497108c48.171906 5.617989 80.991842-47.617907 54.261894-88.085828a1519.917031 1519.917031 0 0 0-27.317947-39.957922c-9.399982-12.365976-16.505968-21.071959-16.505967-21.071958-75.753852-89.933824-286.96744-95.877813-286.96744-95.877813C6.115988 211.291587-4.041992 222.679565 1.525997 236.799538l26.285949 66.659869c25.61595 64.961873 95.233814 117.291771 172.703662 134.459738 0 0 56.929889 13.765973 97.203811 18.243964l2.849994 0.333999z" fill="#BF7F4F" p-id="2252"></path><path d="M331.715352 411.815196c4.801991-10.26798 0.601999-22.477956-9.493981-27.629946-16.115969-8.225984-35.90793-18.915963-37.405927-21.321959-28.169945-45.267912-58.417886-91.307822-120.917764-95.571813-21.611958-1.475997-87.753829-2.425995-110.559784-2.719995-3.873992-0.05-6.053988 2.999994-4.411992 6.199988 10.983979 21.401958 48.775905 89.491825 96.305812 112.84178 50.345902 24.733952 121.923762 36.441929 165.603677 40.237921a21.029959 21.029959 0 0 0 20.879959-12.035976z" fill="#A86B38" p-id="2253"></path><path d="M723.428587 456.497108c-48.171906 5.617989-80.991842-47.617907-54.261894-88.085828a1519.917031 1519.917031 0 0 1 27.317947-39.957922c9.399982-12.365976 16.505968-21.071959 16.505967-21.071958 75.753852-89.933824 286.96944-95.875813 286.96944-95.875813 17.921965-0.212 28.081945 11.175978 22.513956 25.29595l-26.285949 66.65987c-25.61595 64.961873-95.233814 117.291771-172.703662 134.459738 0 0-56.929889 13.765973-97.203811 18.243964l-2.851994 0.331999z" fill="#BF7F4F" p-id="2254"></path><path d="M692.282648 411.815196c-4.801991-10.26798-0.601999-22.477956 9.493981-27.629946 16.115969-8.225984 35.90793-18.915963 37.405927-21.321959 28.169945-45.267912 58.417886-91.307822 120.917764-95.571813 21.611958-1.475997 87.753829-2.425995 110.559784-2.719995 3.873992-0.05 6.053988 2.999994 4.411992 6.199988-10.983979 21.401958-48.775905 89.491825-96.305812 112.84178-50.345902 24.733952-121.923762 36.441929-165.603677 40.237921a21.029959 21.029959 0 0 1-20.879959-12.035976z" fill="#A86B38" p-id="2255"></path><path d="M511.999 877.998285c-61.52188 0-136.519733-84.773834-88.461827 77.371849 9.029982 30.46994 46.879908 44.435913 88.461827 44.435913s79.431845-13.963973 88.461827-44.435913C648.518733 793.224451 573.52088 877.998285 511.999 877.998285z" fill="#844D28" p-id="2256"></path><path d="M644.488741 264.569483h-62.961877a42.885916 42.885916 0 0 0-35.383931 18.653964l-15.839969 23.125955c-8.785983 12.825975-27.709946 12.831975-36.503928 0.01l-15.879969-23.155955a42.891916 42.891916 0 0 0-35.371931-18.633964h-63.039877c-17.993965 0-34.679932 9.463982-43.847915 24.947952-31.073939 52.479898-50.337902 108.651788-50.337901 121.157763 0 0-0.673999 122.491761-0.673999 124.823756 0 129.509747 89.809825 253.565505 118.835768 362.055293 11.719977 43.805914 64.003875 56.29989 108.511788 56.989889 44.507913-0.689999 96.791811-13.181974 108.511788-56.989889 29.025943-108.489788 118.835768-232.543546 118.835768-362.055293 0-2.331995-0.673999-124.823756-0.673999-124.823756 0-12.505976-19.263962-68.677866-50.337901-121.157763-9.161982-15.48397-25.84795-24.947951-43.841915-24.947952z" fill="#A86B38" p-id="2257"></path><path d="M738.672557 410.673198c0-12.505976-19.263962-68.677866-50.337901-121.157763-9.167982-15.48197-25.85395-24.947951-43.847915-24.947952h-62.961877c-0.084 0-0.168 0.008-0.251999 0.008 17.901965 0.082 34.483933 9.523981 43.611915 24.939952 31.073939 52.479898 50.337902 108.651788 50.337901 121.157763 0 0 0.673999 122.491761 0.673999 124.823756 0 129.509747-89.809825 253.565505-118.835768 362.055293-8.991982 33.611934-41.867918 48.777905-76.78585 54.331894 10.591979 1.683997 21.367958 2.495995 31.725938 2.657995 44.507913-0.689999 96.791811-13.181974 108.511788-56.989889 29.025943-108.489788 118.835768-232.543546 118.835768-362.055293-0.002-2.331995-0.675999-124.823756-0.675999-124.823756z" fill="#9B5E31" p-id="2258"></path><path d="M539.372947 902.234238a47.725907 47.725907 0 0 1-54.747894 0c-23.937953-16.753967-54.905893-42.351917-54.905892-62.661878 0-56.869889 77.207849-56.869889 77.207849-56.869889h10.14398s77.207849 0 77.207849 56.869889c0 20.30996-30.96794 45.90791-54.905892 62.661878z" fill="#3D3D42" p-id="2259"></path><path d="M517.07099 782.704471h-10.14398s-10.30598 0.004-23.385954 2.775995c22.723956 4.815991 53.821895 17.997965 53.821894 54.093894 0 15.891969-12.403976 49.309904-29.269942 71.121861a47.687907 47.687907 0 0 0 31.277939-8.459983c23.937953-16.753967 54.905893-42.351917 54.905892-62.661878 0.002-56.869889-77.205849-56.869889-77.205849-56.869889z" fill="#333338" p-id="2260"></path><path d="M389.545239 609.554809c-14.293972-97.23381-75.077853-134.209738-104.507796-146.605713-0.184 33.615934-0.387999 71.265861-0.387999 72.547858 0 120.865764 78.213847 236.977537 112.247781 340.121336v-0.01c-8.173984-76.64585 11.689977-136.511733-7.351986-266.053481zM634.452761 609.554809c14.293972-97.23381 75.077853-134.209738 104.507796-146.605713 0.184 33.615934 0.387999 71.265861 0.387999 72.547858 0 120.865764-78.213847 236.977537-112.247781 340.121336v-0.01c8.173984-76.64585-11.689977-136.511733 7.351986-266.053481z" fill="#BF7F4F" p-id="2261"></path><path d="M739.342556 534.412956v-0.018l-0.016-3.189994-0.012-2.367995-0.004-0.639999-0.002-0.405999-0.028-5.315989-0.038-7.035987-0.036-6.717987-0.038-6.889986-0.056-10.37998-0.014-2.479995-0.018-3.277994-0.013999-2.441995-0.052-9.585981-0.058-10.717979c-15.977969 6.729987-41.18792 20.73396-63.191877 47.663907 0.076 14.161972 0.128 24.231953 0.128 24.885951 0 65.955871-23.295955 130.495745-49.989902 192.285625 0.281999 57.249888 6.383988 99.167806 1.193997 147.823711v0.01c13.271974-40.219921 33.253935-82.413839 52.705897-126.091754 0.417999-0.937998 0.835998-1.873996 1.251998-2.813994a2435.889242 2435.889242 0 0 0 5.06599-11.491978c0.511999-1.169998 1.021998-2.343995 1.531997-3.515993a1559.816953 1559.816953 0 0 0 4.517991-10.48798c1.179998-2.769995 2.355995-5.541989 3.519993-8.321983l0.871999-2.097996a1068.065914 1068.065914 0 0 0 3.399993-8.261984l0.793998-1.961996c1.159998-2.869994 2.303996-5.745989 3.435994-8.625983l0.675998-1.713997c1.179998-3.025994 2.339995-6.057988 3.483993-9.093982l0.725999-1.925997a721.98459 721.98459 0 0 0 3.311994-9.049982l0.705998-1.971996a662.372706 662.372706 0 0 0 3.809993-11.033979c1.031998-3.079994 2.041996-6.165988 3.019994-9.255981l0.539999-1.721997c0.993998-3.169994 1.961996-6.345988 2.893994-9.525981 0.134-0.455999 0.261999-0.913998 0.393999-1.371998 0.959998-3.311994 1.891996-6.625987 2.779995-9.94998l0.19-0.727999c0.889998-3.351993 1.739997-6.707987 2.549995-10.06998l0.159999-0.651999c0.803998-3.365993 1.559997-6.737987 2.277996-10.11598 0.088-0.415999 0.182-0.829998 0.267999-1.245998 0.683999-3.267994 1.321997-6.541987 1.919997-9.819981 0.094-0.513999 0.19-1.025998 0.281999-1.539997a357.033303 357.033303 0 0 0 3.103994-21.075958c0.062-0.529999 0.118-1.059998 0.178-1.589997 0.363999-3.285994 0.681999-6.573987 0.941998-9.867981 0.036-0.453999 0.066-0.907998 0.098-1.361997 0.252-3.387993 0.457999-6.777987 0.595998-10.173981 0.012-0.291999 0.018-0.585999 0.028-0.879998 0.134-3.565993 0.214-7.135986 0.214-10.709979l-0.002-0.409999c0.004-0.178 0.004-0.389999 0.002-0.673999z" fill="#AF7045" p-id="2262"></path><path d="M478.937065 864.832311a13.745973 13.745973 0 0 0 10.25798 4.569991 13.789973 13.789973 0 0 0 10.24998-23.009955l-15.885969-17.667966a13.789973 13.789973 0 0 0-20.50796 18.439964l15.885969 17.667966zM525.586973 865.868309a13.735973 13.735973 0 0 0 9.215982 3.535993 13.751973 13.751973 0 0 0 10.25798-4.569991l15.883969-17.667966a13.789973 13.789973 0 0 0-20.50796-18.439964l-15.883969 17.667966a13.789973 13.789973 0 0 0 1.033998 19.473962z" fill="#1A1A1A" p-id="2263"></path><path d="M361.779293 615.836797a15.27197 15.27197 0 0 1-14.087972-9.367982c-9.731981-23.203955-23.841953-28.275945-23.977953-28.311944a15.26997 15.26997 0 1 1 7.911984-29.497943c2.875994 0.771998 28.551944 8.619983 44.227914 45.999911a15.26797 15.26797 0 0 1-14.073973 21.177958zM662.218707 615.836797a15.27197 15.27197 0 0 0 14.087972-9.367982c9.731981-23.203955 23.841953-28.275945 23.977953-28.311944a15.26997 15.26997 0 1 0-7.911984-29.497943c-2.875994 0.771998-28.551944 8.619983-44.227914 45.999911a15.26797 15.26797 0 0 0 14.073973 21.177958z" fill="#4C3F21" p-id="2264"></path></svg>