<svg width="374.105" height="98.003" viewBox="0 0 374.105 98.003" xmlns="http://www.w3.org/2000/svg"><g id="svgGroup" stroke-linecap="round" fill-rule="evenodd" font-size="9pt" stroke="#000" stroke-width="0.25mm" fill="none" style="stroke:#000;stroke-width:0.25mm;fill:none"><path d="M 0.002 60.1 L 0.002 40.5 A 24.185 24.185 0 0 1 0.835 33.852 Q 2.971 26.397 10.581 24.416 A 24.751 24.751 0 0 1 16.802 23.7 L 29.902 23.7 L 29.902 2.9 L 46.602 2.9 L 46.602 76.9 L 16.802 76.9 A 24.185 24.185 0 0 1 10.154 76.067 Q 2.699 73.932 0.719 66.322 A 24.751 24.751 0 0 1 0.002 60.1 Z M 16.702 39.5 L 16.702 61.1 Q 16.702 62.132 17.521 62.345 A 1.915 1.915 0 0 0 18.002 62.4 L 29.902 62.4 L 29.902 38.2 L 18.002 38.2 Q 16.971 38.2 16.758 39.019 A 1.915 1.915 0 0 0 16.702 39.5 Z" id="0" vector-effect="non-scaling-stroke"/><path d="M 59.402 60.1 L 59.402 40.5 A 24.185 24.185 0 0 1 60.235 33.852 Q 62.371 26.397 69.981 24.416 A 24.751 24.751 0 0 1 76.202 23.7 L 90.202 23.7 A 24.185 24.185 0 0 1 96.851 24.533 Q 104.306 26.668 106.286 34.278 A 24.751 24.751 0 0 1 107.002 40.5 L 107.002 60.1 A 24.185 24.185 0 0 1 106.17 66.748 Q 104.034 74.203 96.424 76.184 A 24.751 24.751 0 0 1 90.202 76.9 L 76.202 76.9 A 24.185 24.185 0 0 1 69.554 76.067 Q 62.099 73.932 60.119 66.322 A 24.751 24.751 0 0 1 59.402 60.1 Z M 76.102 39.5 L 76.102 61.1 Q 76.102 62.132 76.921 62.345 A 1.915 1.915 0 0 0 77.402 62.4 L 89.002 62.4 Q 90.034 62.4 90.247 61.581 A 1.915 1.915 0 0 0 90.302 61.1 L 90.302 39.5 Q 90.302 38.468 89.484 38.255 A 1.915 1.915 0 0 0 89.002 38.2 L 77.402 38.2 Q 76.371 38.2 76.158 39.019 A 1.915 1.915 0 0 0 76.102 39.5 Z" id="1" vector-effect="non-scaling-stroke"/><path d="M 119.402 55.2 L 119.402 2.9 L 136.102 2.9 L 136.102 56.9 A 8.329 8.329 0 0 0 136.484 59.525 Q 137.627 62.975 142.202 63.5 L 142.202 78 A 32.823 32.823 0 0 1 133.18 76.87 Q 123.062 73.972 120.375 63.644 A 33.591 33.591 0 0 1 119.402 55.2 Z" id="2" vector-effect="non-scaling-stroke"/><path d="M 152.902 55.2 L 152.902 2.9 L 169.602 2.9 L 169.602 56.9 A 8.329 8.329 0 0 0 169.984 59.525 Q 171.127 62.975 175.702 63.5 L 175.702 78 A 32.823 32.823 0 0 1 166.68 76.87 Q 156.562 73.972 153.875 63.644 A 33.591 33.591 0 0 1 152.902 55.2 Z" id="3" vector-effect="non-scaling-stroke"/><path d="M 203.502 76.9 L 186.802 76.9 L 186.802 23.7 L 203.502 23.7 L 203.502 76.9 Z M 203.702 15.5 L 186.602 15.5 L 186.602 0 L 203.702 0 L 203.702 15.5 Z" id="4" vector-effect="non-scaling-stroke"/><path d="M 216.302 60.1 L 216.302 40.5 A 24.185 24.185 0 0 1 217.135 33.852 Q 219.271 26.397 226.881 24.416 A 24.751 24.751 0 0 1 233.102 23.7 L 246.102 23.7 A 24.185 24.185 0 0 1 252.751 24.533 Q 260.206 26.668 262.186 34.278 A 24.751 24.751 0 0 1 262.902 40.5 L 262.902 56.4 L 233.002 56.4 L 233.002 61.1 Q 233.002 62.132 233.821 62.345 A 1.915 1.915 0 0 0 234.302 62.4 L 260.902 62.4 L 260.902 71.7 L 253.902 76.9 L 233.102 76.9 A 24.185 24.185 0 0 1 226.454 76.067 Q 218.999 73.932 217.019 66.322 A 24.751 24.751 0 0 1 216.302 60.1 Z M 233.002 39.5 L 233.002 43.8 L 246.202 43.8 L 246.202 39.5 Q 246.202 38.468 245.384 38.255 A 1.915 1.915 0 0 0 244.902 38.2 L 234.302 38.2 Q 233.271 38.2 233.058 39.019 A 1.915 1.915 0 0 0 233.002 39.5 Z" id="5" vector-effect="non-scaling-stroke"/><path d="M 292.002 76.9 L 274.502 76.9 L 274.502 60.8 L 292.002 60.8 L 292.002 76.9 Z" id="6" vector-effect="non-scaling-stroke"/><path d="M 296.502 98 L 296.502 83.9 A 11.754 11.754 0 0 0 299.772 83.223 Q 303.389 81.855 304.181 77.911 A 12.266 12.266 0 0 0 304.402 75.5 L 304.402 23.7 L 321.102 23.7 L 321.102 73.4 Q 321.102 92.921 305.613 96.951 A 36.243 36.243 0 0 1 296.502 98 Z M 321.302 15.5 L 304.202 15.5 L 304.202 0 L 321.302 0 L 321.302 15.5 Z" id="7" vector-effect="non-scaling-stroke"/><path d="M 340.002 76.9 L 333.002 71.7 L 333.002 62.4 L 356.002 62.4 Q 357.368 62.4 357.568 60.797 A 4.838 4.838 0 0 0 357.602 60.2 A 5.3 5.3 0 0 0 357.533 59.304 Q 357.454 58.847 357.286 58.509 A 1.615 1.615 0 0 0 356.102 57.6 L 345.902 55.9 A 19.545 19.545 0 0 1 340.127 54.051 Q 334.394 51.061 333.274 44.173 A 22.281 22.281 0 0 1 333.002 40.6 A 24.465 24.465 0 0 1 333.835 33.912 Q 336.743 23.7 349.802 23.7 L 364.702 23.7 L 371.702 28.9 L 371.702 38.2 L 351.102 38.2 Q 349.737 38.2 349.537 39.803 A 4.838 4.838 0 0 0 349.502 40.4 Q 349.502 42.331 350.212 43.065 A 1.45 1.45 0 0 0 351.102 43.5 L 361.302 45.2 Q 372.452 47.029 373.89 56.902 A 21.514 21.514 0 0 1 374.102 60 A 24.465 24.465 0 0 1 373.27 66.688 Q 370.362 76.9 357.302 76.9 L 340.002 76.9 Z" id="8" vector-effect="non-scaling-stroke"/></g></svg>
